<mxfile host="app.diagrams.net" modified="2022-04-13T08:04:46.818Z" agent="5.0 (Macintosh; Intel Mac OS X 12_2_1) AppleWebKit/537.36 (KHTML, like Gecko) Chrome/87.0.4280.88 Safari/537.36" etag="NSN7zLGdRlBnF-J2XtO8" version="17.4.0" type="github">
  <diagram id="C5RBs43oDa-KdzZeNtuy" name="Page-1">
    <mxGraphModel dx="1298" dy="719" grid="1" gridSize="10" guides="1" tooltips="1" connect="1" arrows="1" fold="1" page="1" pageScale="1" pageWidth="827" pageHeight="1169" math="0" shadow="0">
      <root>
        <mxCell id="WIyWlLk6GJQsqaUBKTNV-0" />
        <mxCell id="WIyWlLk6GJQsqaUBKTNV-1" parent="WIyWlLk6GJQsqaUBKTNV-0" />
        <mxCell id="6nt90bKr9o_mBd81rcLL-22" style="edgeStyle=orthogonalEdgeStyle;rounded=0;orthogonalLoop=1;jettySize=auto;html=1;exitX=0.832;exitY=0.986;exitDx=0;exitDy=0;entryX=1;entryY=0.75;entryDx=0;entryDy=0;exitPerimeter=0;" edge="1" parent="WIyWlLk6GJQsqaUBKTNV-1" source="6nt90bKr9o_mBd81rcLL-2" target="6nt90bKr9o_mBd81rcLL-17">
          <mxGeometry relative="1" as="geometry">
            <Array as="points">
              <mxPoint x="586" y="260" />
              <mxPoint x="523" y="260" />
            </Array>
          </mxGeometry>
        </mxCell>
        <mxCell id="6nt90bKr9o_mBd81rcLL-2" value="&lt;div style=&quot;direction: rtl&quot;&gt;&lt;br&gt;&lt;/div&gt;" style="rounded=1;whiteSpace=wrap;html=1;rotation=90;" vertex="1" parent="WIyWlLk6GJQsqaUBKTNV-1">
          <mxGeometry x="510" y="135" width="220" height="70" as="geometry" />
        </mxCell>
        <mxCell id="6nt90bKr9o_mBd81rcLL-24" style="edgeStyle=orthogonalEdgeStyle;rounded=0;orthogonalLoop=1;jettySize=auto;html=1;exitX=1;exitY=0.25;exitDx=0;exitDy=0;entryX=0.25;entryY=1;entryDx=0;entryDy=0;" edge="1" parent="WIyWlLk6GJQsqaUBKTNV-1" source="6nt90bKr9o_mBd81rcLL-6" target="6nt90bKr9o_mBd81rcLL-2">
          <mxGeometry relative="1" as="geometry" />
        </mxCell>
        <mxCell id="6nt90bKr9o_mBd81rcLL-6" value="" style="rounded=1;whiteSpace=wrap;html=1;" vertex="1" parent="WIyWlLk6GJQsqaUBKTNV-1">
          <mxGeometry x="240" y="98" width="220" height="70" as="geometry" />
        </mxCell>
        <mxCell id="6nt90bKr9o_mBd81rcLL-7" value="&lt;span style=&quot;&quot;&gt;slot1&lt;/span&gt;" style="ellipse;whiteSpace=wrap;html=1;aspect=fixed;direction=south;labelBackgroundColor=none;fillColor=#d5e8d4;strokeColor=#82b366;" vertex="1" parent="WIyWlLk6GJQsqaUBKTNV-1">
          <mxGeometry x="384" y="103" width="60" height="60" as="geometry" />
        </mxCell>
        <mxCell id="6nt90bKr9o_mBd81rcLL-12" value="request 2 slots" style="text;html=1;strokeColor=none;fillColor=none;align=center;verticalAlign=middle;whiteSpace=wrap;rounded=0;" vertex="1" parent="WIyWlLk6GJQsqaUBKTNV-1">
          <mxGeometry x="500" y="75" width="60" height="30" as="geometry" />
        </mxCell>
        <mxCell id="6nt90bKr9o_mBd81rcLL-13" value="offer slot1" style="text;html=1;strokeColor=none;fillColor=none;align=center;verticalAlign=middle;whiteSpace=wrap;rounded=0;" vertex="1" parent="WIyWlLk6GJQsqaUBKTNV-1">
          <mxGeometry x="500" y="145" width="60" height="30" as="geometry" />
        </mxCell>
        <mxCell id="6nt90bKr9o_mBd81rcLL-16" style="edgeStyle=orthogonalEdgeStyle;rounded=0;orthogonalLoop=1;jettySize=auto;html=1;entryX=0.995;entryY=0.671;entryDx=0;entryDy=0;entryPerimeter=0;exitX=0.395;exitY=1.029;exitDx=0;exitDy=0;exitPerimeter=0;" edge="1" parent="WIyWlLk6GJQsqaUBKTNV-1" source="6nt90bKr9o_mBd81rcLL-2" target="6nt90bKr9o_mBd81rcLL-6">
          <mxGeometry relative="1" as="geometry">
            <Array as="points">
              <mxPoint x="583" y="145" />
            </Array>
          </mxGeometry>
        </mxCell>
        <mxCell id="6nt90bKr9o_mBd81rcLL-14" value="Slot&lt;br&gt;Manager" style="text;html=1;strokeColor=none;fillColor=none;align=center;verticalAlign=middle;whiteSpace=wrap;rounded=0;" vertex="1" parent="WIyWlLk6GJQsqaUBKTNV-1">
          <mxGeometry x="590" y="160" width="60" height="30" as="geometry" />
        </mxCell>
        <mxCell id="6nt90bKr9o_mBd81rcLL-25" style="edgeStyle=orthogonalEdgeStyle;rounded=0;orthogonalLoop=1;jettySize=auto;html=1;exitX=1;exitY=0.25;exitDx=0;exitDy=0;entryX=0.75;entryY=1;entryDx=0;entryDy=0;" edge="1" parent="WIyWlLk6GJQsqaUBKTNV-1" source="6nt90bKr9o_mBd81rcLL-17" target="6nt90bKr9o_mBd81rcLL-2">
          <mxGeometry relative="1" as="geometry" />
        </mxCell>
        <mxCell id="6nt90bKr9o_mBd81rcLL-17" value="" style="rounded=1;whiteSpace=wrap;html=1;" vertex="1" parent="WIyWlLk6GJQsqaUBKTNV-1">
          <mxGeometry x="240" y="207" width="220" height="70" as="geometry" />
        </mxCell>
        <mxCell id="6nt90bKr9o_mBd81rcLL-18" value="slot2" style="ellipse;whiteSpace=wrap;html=1;aspect=fixed;direction=south;fillColor=#d5e8d4;strokeColor=#82b366;" vertex="1" parent="WIyWlLk6GJQsqaUBKTNV-1">
          <mxGeometry x="384" y="212" width="60" height="60" as="geometry" />
        </mxCell>
        <mxCell id="6nt90bKr9o_mBd81rcLL-19" value="request 2 slots" style="text;html=1;strokeColor=none;fillColor=none;align=center;verticalAlign=middle;whiteSpace=wrap;rounded=0;" vertex="1" parent="WIyWlLk6GJQsqaUBKTNV-1">
          <mxGeometry x="500" y="190" width="60" height="30" as="geometry" />
        </mxCell>
        <mxCell id="6nt90bKr9o_mBd81rcLL-20" value="offer slot2" style="text;html=1;strokeColor=none;fillColor=none;align=center;verticalAlign=middle;whiteSpace=wrap;rounded=0;" vertex="1" parent="WIyWlLk6GJQsqaUBKTNV-1">
          <mxGeometry x="500" y="270" width="60" height="30" as="geometry" />
        </mxCell>
        <mxCell id="6nt90bKr9o_mBd81rcLL-27" value="unfulfilled&lt;br&gt;slot" style="ellipse;whiteSpace=wrap;html=1;aspect=fixed;direction=south;labelBackgroundColor=none;fillColor=#ffe6cc;strokeColor=#d79b00;" vertex="1" parent="WIyWlLk6GJQsqaUBKTNV-1">
          <mxGeometry x="260" y="103" width="60" height="60" as="geometry" />
        </mxCell>
        <mxCell id="6nt90bKr9o_mBd81rcLL-28" value="unfulfilled&lt;br&gt;slot" style="ellipse;whiteSpace=wrap;html=1;aspect=fixed;direction=south;labelBackgroundColor=none;fillColor=#ffe6cc;strokeColor=#d79b00;" vertex="1" parent="WIyWlLk6GJQsqaUBKTNV-1">
          <mxGeometry x="260" y="212" width="60" height="60" as="geometry" />
        </mxCell>
        <mxCell id="6nt90bKr9o_mBd81rcLL-29" value="&lt;span style=&quot;&quot;&gt;slot1&lt;/span&gt;" style="ellipse;whiteSpace=wrap;html=1;aspect=fixed;direction=south;labelBackgroundColor=none;fillColor=#dae8fc;strokeColor=#6c8ebf;" vertex="1" parent="WIyWlLk6GJQsqaUBKTNV-1">
          <mxGeometry x="590" y="85" width="60" height="60" as="geometry" />
        </mxCell>
        <mxCell id="6nt90bKr9o_mBd81rcLL-30" value="&lt;span&gt;slot2&lt;/span&gt;" style="ellipse;whiteSpace=wrap;html=1;aspect=fixed;direction=south;labelBackgroundColor=none;fillColor=#dae8fc;strokeColor=#6c8ebf;" vertex="1" parent="WIyWlLk6GJQsqaUBKTNV-1">
          <mxGeometry x="590" y="210" width="60" height="60" as="geometry" />
        </mxCell>
        <mxCell id="6nt90bKr9o_mBd81rcLL-31" value="Job1" style="text;html=1;strokeColor=none;fillColor=none;align=center;verticalAlign=middle;whiteSpace=wrap;rounded=0;labelBackgroundColor=none;" vertex="1" parent="WIyWlLk6GJQsqaUBKTNV-1">
          <mxGeometry x="320" y="60" width="60" height="30" as="geometry" />
        </mxCell>
        <mxCell id="6nt90bKr9o_mBd81rcLL-33" value="Job2" style="text;html=1;strokeColor=none;fillColor=none;align=center;verticalAlign=middle;whiteSpace=wrap;rounded=0;labelBackgroundColor=none;" vertex="1" parent="WIyWlLk6GJQsqaUBKTNV-1">
          <mxGeometry x="320" y="290" width="60" height="30" as="geometry" />
        </mxCell>
      </root>
    </mxGraphModel>
  </diagram>
</mxfile>
